<?xml version="1.0" encoding="UTF-8"?>
<svg viewBox="0 0 629.81519 794.91565" xmlns="http://www.w3.org/2000/svg">
 <g transform="matrix(2.3091 0 0 2.3091 -1267.5 -979.43)">
  <path d="m550.53 455.36c50.667 93.458 108.24 75.136 138.9 180.31-6.992-30.823-7.2668-47.462 15.152-60.104 3.41-3.4942 10.102-10.607 10.102-10.607-1.2916 23.63-5.5691 33.513 7.0711 54.548-1.3298-130.16 69.863-94.687 97.985-194.96 2.1029 38.651-3.3489 53.642-25.759 86.368 20.261-18.767 10.101 9.9841 0 21.718 24.338-27.098 17.215 3.109-1.0102 19.698 27.334-25.195 21.312 3.9832 2.0203 21.718 33.751-16.997 5.4585 21.199-11.112 30.305 23.844 9.1895 4.8785 51.56-46.467 74.246-20.382 37.429-50.182 43.794-56.063 89.398l-6.566-23.234c-5.2233 21.704-17.414 18.594-12.627-3.5355-11.443 15.719-22.56 12.444-12.627-6.566-15.206 4.926-27.141 3.056-13.637-13.132-15.639 2.7918-24.979-2.2871-9.0914-14.142-5.959-4.8647-10.633-11.158-28.284-3.0305 24.796-19.24 46.142-7.766 70.206-17.678-32.192-4.8434-73.46-20.979-58.084-61.114-22.813-1.3306-42.766-33.945-11.617-17.678-24.308-9.0996-29.77-38.678-2.0203-16.668-23.536-8.5889-39.805-53.863-8.0812-27.274-25.496-15.672-27.318-44.89 4.0406-21.213-25.759-27.861-44.304-48.092-42.426-87.378z" fill="#cff" stroke="#54c5f9" stroke-width="3"/>
  <path d="m744.06 570.06c-1.8335-0.056-3.5906 2.9478-3.3125 8.6562 0.70201 14.412-10.063 41.584-14.969 48.375 10.643 18.479 12.478 28.188 12.125 49.25 10.177-3.1632 19.689-6.6119 9.0938-15.156 13.667-1.6041 31.664-10.289 11.125-15.656 8.641-7.4266 26.367-26.219 3.5312-22.219 7.9405-13.722 13.261-44.806-4.5625-22.75 8.4858-18.068 4.7434-36.302-9.8438-14.375 1.633-10.921-0.83009-16.053-3.1875-16.125zm-89.812 18.594c-3.7034 0.0223-6.3737 4.9773-1.9375 14.688-17.886-12.157-16.792 2.955-7.0625 16.688-17.385-7.9153-17.008 3.0818-3.5625 12.875-27.166-3.9884-6.0625 17.377 8.0938 25-19.88-2.1682-8.5944 8.6598 5.3125 11.344-13.232 9.3809 7.3349 10.72 14.875 10.625 8.0113-16.402 23.392-25.148 19.469-43.938-4.4552-4.8489-23.34-25.683-28.094-40.312-1.5242-4.6904-4.5599-6.984-7.0938-6.9688zm46.781 0.8125c-1.6737 0-3.0312 1.3576-3.0312 3.0312s1.3576 3.0312 3.0312 3.0312 3.0312-1.3576 3.0312-3.0312-1.3576-3.0312-3.0312-3.0312zm25.031 48.969c0.0697 37.115-12.105 53.547-47.5 71.469 10.576-22.07 14.88-36.798 12.625-59.094-5.4887 18.309-6.0744 24.369-22.219 35.875h-0.25c-24.063 9.9116-45.423-1.5524-70.219 17.688 17.652-8.1272 22.354-1.8335 28.312 3.0312-15.888 11.855-6.5453 16.917 9.0938 14.125-13.504 16.188-1.5814 18.051 13.625 13.125-9.9331 19.01 1.1817 22.313 12.625 6.5938-4.7869 22.129 7.4017 25.236 12.625 3.5312l6.5625 23.219c5.2733-40.892 29.798-50.241 49.5-78.719 4.7499-16.301 4.3556-31.899-4.7812-50.844z" fill="#54c5f9"/>
  <g transform="matrix(.42938 .25806 -.25806 .42938 498.49 -10.398)">
   <path d="m906.12 676.59h108.05a2.0366 2.0366 0 0 1 2.0366 2.0366v71.688a2.0366 2.0366 0 0 1 -2.0366 2.0366h-108.05a2.0366 2.0366 0 0 1 -2.0366 -2.0366v-71.688a2.0366 2.0366 0 0 1 2.0366 -2.0366" fill="#cff"/>
   <path d="m903.83 752.35 56.063-45.452 56.064 45.452" fill="none" stroke="#54c5f9" stroke-linejoin="round" stroke-width="5.9885"/>
   <path d="m904.09 676.59 56.063 45.452 56.063-45.452" fill="#cff" stroke="#54c5f9" stroke-linejoin="round" stroke-width="5.9885"/>
   <path d="m906.12 676.59h108.05a2.0366 2.0366 0 0 1 2.0366 2.0366v71.688a2.0366 2.0366 0 0 1 -2.0366 2.0366h-108.05a2.0366 2.0366 0 0 1 -2.0366 -2.0366v-71.688a2.0366 2.0366 0 0 1 2.0366 -2.0366" fill="none" stroke="#54c5f9" stroke-width="5.9885"/>
  </g>
 </g>
</svg>
